<svg width="200" height="40" fill="none" xmlns="http://www.w3.org/2000/svg"><path opacity=".4" fill="#FBB000" d="M0 0h40v40H0z"/><path fill="#FBB000" d="M6.667 6.666h26.667v26.667H6.667z"/><path d="M11.986 15.054h1.174v9.787h-1.174v3.493h7.68c5.76 0 7.494-1.84 7.494-4.747 0-2.533-1.627-3.573-5.147-3.813v-.08c2.88-.347 4.453-1.36 4.453-3.92 0-3.12-2.293-4.48-6.693-4.48h-7.787v3.76zm6.187 9.92V21.4h1.387c1.946 0 2.533.72 2.533 1.813 0 1.12-.32 1.76-2.48 1.76h-1.44zm0-6.48v-3.467h1.573c1.36 0 1.84.694 1.84 1.68 0 .96-.426 1.787-2.026 1.787h-1.387zm40.934 9.839H64.6V24.84h-1.84l-2.16-3.707c2.347-.72 3.493-2.346 3.493-4.693 0-3.547-2.586-5.147-7.04-5.147h-8.4v3.76h1.174v9.787h-1.174v3.493H56.2V24.84h-1.227v-3.6l4.134 7.093zm-4.134-8.96v-4.24h1.734c1.36 0 2.213.427 2.213 2.107 0 1.493-.667 2.133-2.373 2.133h-1.574zm26.936 8.96h6.906V24.84h-1.653l.373-1.36h5.014l.4 1.36h-1.84v3.493h8.213V24.84h-.853l-4.08-13.547h-7.36L82.814 24.84h-.906v3.493zm8.133-13.866l1.6 5.786h-3.227l1.627-5.786zm37.647.586h1.626v6.934l-4.346-10.694h-8.347v3.76h1.173v9.787h-1.173v3.493h7.36V24.84h-2.16v-8.587l5.147 12.08h6.373v-13.28h1.173v-3.76h-6.826v3.76zm24.141 0h1.174v9.787h-1.174v3.493h7.734c5.093 0 8.933-2.16 8.933-8.56v-.053c0-5.84-3.44-8.427-8.453-8.427h-8.214v3.76zm6.32 9.707v-9.413h1.654c2.453 0 3.306 1.093 3.306 3.546v1.52c0 2.8-.88 4.347-3.84 4.347h-1.12zm35.987-8.213h4.32v-3.84c-1.04-1.067-3.28-1.787-6.08-1.787-3.254 0-6.48 1.573-6.48 5.627 0 1.706.426 3.546 2.133 4.48 1.627.933 3.6 1.12 4.667 1.413 1.093.293 1.52.64 1.52 1.28 0 1.067-.694 1.573-2.4 1.573-.534 0-1.094-.053-1.627-.133v-2.213h-4.373v3.92c1.066 1.066 3.386 1.866 6.506 1.866 4.267 0 7.014-1.893 7.014-5.786 0-1.734-.4-3.28-2.32-4.347-1.467-.853-3.947-1.173-5.254-1.467-.88-.213-1.2-.586-1.2-1.226 0-.854.56-1.36 2.16-1.36.454 0 .907.026 1.414.106v1.894z" fill="#000"/></svg>